<svg width="398" height="43" viewBox="0 0 398 43" fill="none" xmlns="http://www.w3.org/2000/svg">
<rect x="68" width="263" height="43" fill="#67C7BB"/>
<path d="M3 21L65.5 21" stroke="black" stroke-width="5" stroke-linecap="round"/>
<path d="M333 21L395.5 21" stroke="black" stroke-width="5" stroke-linecap="round" stroke-linejoin="round"/>
<path d="M141.824 20.8379H136.199V24.6465H142.801V27H133.27V12.7812H142.781V15.1543H136.199V18.543H141.824V20.8379ZM151.607 17.6836L154.273 12.7812H157.643L153.502 19.832L157.75 27H154.342L151.607 22.0195L148.873 27H145.465L149.713 19.832L145.572 12.7812H148.941L151.607 17.6836ZM164.164 21.9902V27H161.234V12.7812H166.781C167.849 12.7812 168.786 12.9766 169.594 13.3672C170.408 13.7578 171.033 14.3145 171.469 15.0371C171.905 15.7533 172.123 16.5703 172.123 17.4883C172.123 18.8815 171.645 19.9818 170.688 20.7891C169.737 21.5898 168.419 21.9902 166.732 21.9902H164.164ZM164.164 19.6172H166.781C167.556 19.6172 168.145 19.4349 168.549 19.0703C168.959 18.7057 169.164 18.1849 169.164 17.5078C169.164 16.8112 168.959 16.248 168.549 15.8184C168.139 15.3887 167.572 15.1673 166.85 15.1543H164.164V19.6172ZM184.699 20.8379H179.074V24.6465H185.676V27H176.145V12.7812H185.656V15.1543H179.074V18.543H184.699V20.8379ZM194.658 21.7949H192.324V27H189.395V12.7812H194.678C196.357 12.7812 197.653 13.1556 198.564 13.9043C199.476 14.653 199.932 15.7109 199.932 17.0781C199.932 18.0482 199.72 18.8587 199.297 19.5098C198.88 20.1543 198.245 20.6686 197.393 21.0527L200.469 26.8633V27H197.324L194.658 21.7949ZM192.324 19.4219H194.688C195.423 19.4219 195.993 19.2363 196.396 18.8652C196.8 18.4876 197.002 17.9701 197.002 17.3125C197.002 16.6419 196.81 16.1146 196.426 15.7305C196.048 15.3464 195.465 15.1543 194.678 15.1543H192.324V19.4219ZM207.283 27H204.354V12.7812H207.283V27ZM220.562 20.8379H214.938V24.6465H221.539V27H212.008V12.7812H221.52V15.1543H214.938V18.543H220.562V20.8379ZM236.82 27H233.891L228.188 17.6445V27H225.258V12.7812H228.188L233.9 22.1562V12.7812H236.82V27ZM252.541 22.2637C252.43 23.7936 251.864 24.998 250.842 25.877C249.826 26.7559 248.485 27.1953 246.818 27.1953C244.995 27.1953 243.56 26.5833 242.512 25.3594C241.47 24.1289 240.949 22.4427 240.949 20.3008V19.4316C240.949 18.0645 241.19 16.86 241.672 15.8184C242.154 14.7767 242.84 13.9792 243.732 13.4258C244.631 12.8659 245.673 12.5859 246.857 12.5859C248.498 12.5859 249.82 13.0254 250.822 13.9043C251.825 14.7832 252.404 16.0169 252.561 17.6055H249.631C249.559 16.6875 249.302 16.0234 248.859 15.6133C248.423 15.1966 247.756 14.9883 246.857 14.9883C245.881 14.9883 245.148 15.3398 244.66 16.043C244.178 16.7396 243.931 17.8236 243.918 19.2949V20.3691C243.918 21.9056 244.149 23.0286 244.611 23.7383C245.08 24.4479 245.816 24.8027 246.818 24.8027C247.723 24.8027 248.397 24.5977 248.84 24.1875C249.289 23.7708 249.546 23.1296 249.611 22.2637H252.541ZM265.02 20.8379H259.395V24.6465H265.996V27H256.465V12.7812H265.977V15.1543H259.395V18.543H265.02V20.8379Z" fill="white"/>
</svg>
