<svg width="398" height="43" viewBox="0 0 398 43" fill="none" xmlns="http://www.w3.org/2000/svg">
<rect x="68" width="263" height="43" fill="#67C7BB"/>
<path d="M3 21L65.5 21" stroke="black" stroke-width="5" stroke-linecap="round"/>
<path d="M333 21L395.5 21" stroke="black" stroke-width="5" stroke-linecap="round" stroke-linejoin="round"/>
<path d="M165.973 16.1543H161.617V28H158.688V16.1543H154.391V13.7812H165.973V16.1543ZM181.225 28H178.295V21.9062H172.582V28H169.652V13.7812H172.582V19.543H178.295V13.7812H181.225V28ZM194.348 21.8379H188.723V25.6465H195.324V28H185.793V13.7812H195.305V16.1543H188.723V19.543H194.348V21.8379ZM214.578 21.8379H208.953V25.6465H215.555V28H206.023V13.7812H215.535V16.1543H208.953V19.543H214.578V21.8379ZM230.836 28H227.906L222.203 18.6445V28H219.273V13.7812H222.203L227.916 23.1562V13.7812H230.836V28ZM235.395 28V13.7812H239.77C241.02 13.7812 242.136 14.0645 243.119 14.6309C244.109 15.1908 244.88 15.9915 245.434 17.0332C245.987 18.0684 246.264 19.2467 246.264 20.5684V21.2227C246.264 22.5443 245.99 23.7194 245.443 24.748C244.903 25.7767 244.138 26.5742 243.148 27.1406C242.159 27.707 241.042 27.9935 239.799 28H235.395ZM238.324 16.1543V25.6465H239.74C240.886 25.6465 241.762 25.2721 242.367 24.5234C242.973 23.7747 243.282 22.7038 243.295 21.3105V20.5586C243.295 19.1133 242.995 18.0195 242.396 17.2773C241.798 16.5286 240.922 16.1543 239.77 16.1543H238.324Z" fill="white"/>
</svg>
